<svg width="350" height="347" viewBox="0 0 350 347" fill="none" xmlns="http://www.w3.org/2000/svg">
<path d="M45.3845 204.512C29.4272 204.512 17.6085 199.989 9.9285 190.944C7.19783 187.701 4.97917 183.392 3.2725 178.016C1.56583 172.64 0.7125 166.112 0.7125 158.432C0.7125 150.752 1.94983 143.883 4.4245 137.824C6.9845 131.68 10.4405 126.944 14.7925 123.616C23.2405 117.387 33.4378 114.272 45.3845 114.272C48.7978 114.272 52.1258 114.571 55.3685 115.168C58.6112 115.68 61.0432 116.235 62.6645 116.832L64.9685 117.728L64.5845 119.008C58.7818 116.704 52.3818 115.552 45.3845 115.552C36.3392 115.552 28.7872 118.496 22.7285 124.384C18.1205 128.736 14.8778 135.136 13.0005 143.584C11.8912 148.363 11.3365 154.208 11.3365 161.12C11.3365 168.032 12.3178 174.432 14.2805 180.32C16.2432 186.123 18.4618 190.432 20.9365 193.248C23.4965 196.064 26.5685 198.325 30.1525 200.032C33.7365 201.653 36.5952 202.592 38.7285 202.848C40.8618 203.104 43.4218 203.232 46.4085 203.232C49.4805 203.232 52.9365 202.933 56.7765 202.336C60.6165 201.739 63.5178 201.184 65.4805 200.672L68.4245 199.776L68.8085 201.056C62.3232 203.36 54.5152 204.512 45.3845 204.512ZM132.193 204C128.694 204 126.006 203.232 124.129 201.696C122.337 200.16 121.398 198.624 121.313 197.088L121.185 194.912V154.72C121.185 147.979 119.393 143.669 115.809 141.792C114.102 140.939 111.926 140.512 109.281 140.512C103.99 140.512 99.2112 142.688 94.9445 147.04C90.7632 151.307 88.6725 155.147 88.6725 158.56V204H79.7125V108.128H88.6725V154.592C90.0378 150.923 92.6405 147.509 96.4805 144.352C100.321 141.109 104.63 139.488 109.409 139.488C117.686 139.488 123.19 140.939 125.921 143.84C128.737 146.656 130.145 150.325 130.145 154.848V194.912C130.145 197.387 130.614 199.307 131.553 200.672C132.577 201.952 133.558 202.635 134.497 202.72L136.033 202.976H140.001V204H132.193ZM155.762 172.768C155.762 183.349 157.596 191.115 161.266 196.064C165.02 201.013 169.927 203.488 175.986 203.488C184.519 203.488 192.114 202.208 198.77 199.648L199.154 200.544C192.327 203.189 184.604 204.512 175.986 204.512C167.452 204.512 160.498 201.952 155.122 196.832C149.746 191.712 147.058 183.819 147.058 173.152C147.058 162.485 149.874 154.208 155.506 148.32C161.138 142.432 168.306 139.488 177.01 139.488C184.007 139.488 189.895 141.579 194.674 145.76C199.452 149.941 201.842 156.128 201.842 164.32C201.842 164.747 201.842 165.173 201.842 165.6H156.146C155.89 167.904 155.762 170.293 155.762 172.768ZM193.138 164.576C193.052 156.384 191.474 150.325 188.402 146.4C185.33 142.475 181.362 140.512 176.498 140.512C171.634 140.512 167.282 142.645 163.442 146.912C159.687 151.179 157.298 157.067 156.274 164.576H193.138ZM227.189 204C219.679 204 214.943 202.037 212.981 198.112C212.554 197.259 212.341 196.491 212.341 195.808V108.128H221.301V194.912C221.301 197.387 221.77 199.307 222.708 200.672C223.733 201.952 224.757 202.635 225.781 202.72L227.189 202.976H231.157V204H227.189Z" fill="white"/>
<g filter="url(#filter0_d_0_1)">
<path d="M202.493 0.699219C223.799 0.699219 243.305 4.43457 261.014 11.9053C278.445 19.376 293.525 30.3053 306.253 44.6934C318.704 59.0814 328.388 76.7897 335.306 97.8184C342.223 118.847 345.682 142.919 345.682 170.035C345.682 196.598 342.361 220.393 335.721 241.422C328.803 262.451 319.119 280.159 306.668 294.547C293.94 308.935 278.86 319.864 261.429 327.335C243.72 335.082 224.075 338.956 202.493 338.956C186.998 338.956 172.61 336.881 159.329 332.73C145.771 328.58 133.873 322.493 123.636 314.469C113.121 306.445 104.406 296.484 97.4883 284.586C90.2943 272.688 85.3138 259.13 82.5469 243.912H114.92C116.303 253.873 119.485 262.727 124.466 270.475C129.17 278.222 135.395 284.724 143.143 289.981C150.89 295.239 159.882 299.112 170.12 301.603C180.081 304.369 190.872 305.753 202.493 305.753C218.818 305.753 233.759 302.848 247.317 297.037C260.875 291.503 272.496 283.064 282.181 271.72C291.865 260.375 299.336 246.126 304.593 228.971C309.85 212.092 312.479 192.447 312.479 170.035C312.479 147.346 309.85 127.424 304.593 110.27C299.336 93.3913 291.865 79.2799 282.181 67.9355C272.496 56.5911 260.875 48.0137 247.317 42.2031C233.759 36.6693 218.818 33.9023 202.493 33.9023C191.702 33.9023 181.326 35.1475 171.365 37.6377C161.404 40.4046 152.55 44.2783 144.803 49.2588C136.779 54.516 130.138 60.8799 124.881 68.3506C119.624 76.098 116.303 85.0905 114.92 95.3281H82.5469C85.5905 79.8333 90.7093 66.137 97.9033 54.2393C104.821 42.6182 113.536 32.7956 124.051 24.7715C134.288 16.7474 146.186 10.7985 159.744 6.9248C173.025 2.77441 187.275 0.699219 202.493 0.699219Z" fill="white"/>
</g>
<path d="M0.6 227.07C0.6 226.757 0.71 226.487 0.93 226.26C1.15 226.033 1.42667 225.92 1.76 225.92C2.09333 225.92 2.37667 226.033 2.61 226.26C2.84333 226.487 2.96 226.757 2.96 227.07C2.96 227.383 2.84333 227.647 2.61 227.86C2.37667 228.073 2.09333 228.18 1.76 228.18C1.42667 228.18 1.15 228.073 0.93 227.86C0.71 227.64 0.6 227.377 0.6 227.07ZM4.17422 227.07C4.17422 226.757 4.28422 226.487 4.50422 226.26C4.72422 226.033 5.00089 225.92 5.33422 225.92C5.66755 225.92 5.95089 226.033 6.18422 226.26C6.41755 226.487 6.53422 226.757 6.53422 227.07C6.53422 227.383 6.41755 227.647 6.18422 227.86C5.95089 228.073 5.66755 228.18 5.33422 228.18C5.00089 228.18 4.72422 228.073 4.50422 227.86C4.28422 227.64 4.17422 227.377 4.17422 227.07ZM7.74844 227.07C7.74844 226.757 7.85844 226.487 8.07844 226.26C8.29844 226.033 8.5751 225.92 8.90844 225.92C9.24177 225.92 9.5251 226.033 9.75844 226.26C9.99177 226.487 10.1084 226.757 10.1084 227.07C10.1084 227.383 9.99177 227.647 9.75844 227.86C9.5251 228.073 9.24177 228.18 8.90844 228.18C8.5751 228.18 8.29844 228.073 8.07844 227.86C7.85844 227.64 7.74844 227.377 7.74844 227.07ZM12.7427 228V215.44H17.4427C18.3627 215.44 19.126 215.593 19.7327 215.9C20.3393 216.2 20.7927 216.6 21.0927 217.1C21.3927 217.593 21.5427 218.133 21.5427 218.72C21.5427 219.44 21.3427 220.067 20.9427 220.6C20.5493 221.127 19.956 221.487 19.1627 221.68C19.676 221.76 20.126 221.943 20.5127 222.23C20.906 222.51 21.2127 222.857 21.4327 223.27C21.6527 223.677 21.7627 224.113 21.7627 224.58C21.7627 225.007 21.6893 225.423 21.5427 225.83C21.4027 226.237 21.166 226.603 20.8327 226.93C20.4993 227.257 20.056 227.517 19.5027 227.71C18.9493 227.903 18.2627 228 17.4427 228H12.7427ZM14.3027 226.64H17.4227C18.376 226.64 19.0593 226.44 19.4727 226.04C19.8927 225.64 20.1027 225.127 20.1027 224.5C20.1027 223.867 19.876 223.36 19.4227 222.98C18.9693 222.593 18.3027 222.4 17.4227 222.4H14.3027V226.64ZM14.3027 216.78V221.06H17.3827C18.1627 221.06 18.7827 220.87 19.2427 220.49C19.7093 220.103 19.9427 219.56 19.9427 218.86C19.9427 218.207 19.716 217.697 19.2627 217.33C18.816 216.963 18.196 216.78 17.4027 216.78H14.3027ZM25.1445 228V215.44H32.8845V216.78H26.7045V221H32.5245V222.34H26.7045V226.64H32.8845V228H25.1445ZM34.495 216.78V215.44H44.275V216.78H39.805L40.155 216.42V228H38.595V216.42L38.945 216.78H34.495ZM44.5145 216.78V215.44H54.2945V216.78H49.8245L50.1745 216.42V228H48.6145V216.42L48.9645 216.78H44.5145ZM56.4141 228V215.44H64.1541V216.78H57.9741V221H63.7941V222.34H57.9741V226.64H64.1541V228H56.4141ZM67.6645 228V215.44H72.0445C73.4779 215.44 74.5612 215.783 75.2945 216.47C76.0345 217.15 76.4045 218.047 76.4045 219.16C76.4045 220.26 76.0345 221.153 75.2945 221.84C74.5612 222.52 73.4779 222.86 72.0445 222.86H69.2245V228H67.6645ZM74.7045 228L71.1045 222.3H72.8045L76.7245 228H74.7045ZM69.2245 221.76H71.9245C72.8645 221.76 73.5779 221.53 74.0645 221.07C74.5579 220.603 74.8045 220 74.8045 219.26C74.8045 218.5 74.5679 217.897 74.0945 217.45C73.6279 217.003 72.9445 216.78 72.0445 216.78H69.2245V221.76ZM84.6567 228V215.44H86.2167V228H84.6567ZM94.2822 228.24C93.4422 228.24 92.6722 228.09 91.9722 227.79C91.2722 227.483 90.7089 227.033 90.2822 226.44C89.8555 225.847 89.6355 225.113 89.6222 224.24H91.1422C91.1422 224.827 91.2855 225.31 91.5722 225.69C91.8589 226.063 92.2389 226.343 92.7122 226.53C93.1855 226.71 93.7022 226.8 94.2622 226.8C94.8689 226.8 95.3955 226.703 95.8422 226.51C96.2889 226.317 96.6322 226.063 96.8722 225.75C97.1189 225.43 97.2422 225.08 97.2422 224.7C97.2422 224.167 97.0789 223.737 96.7522 223.41C96.4255 223.077 95.9422 222.807 95.3022 222.6L93.0822 221.82C92.0422 221.447 91.2555 221.02 90.7222 220.54C90.1889 220.06 89.9222 219.387 89.9222 218.52C89.9222 217.547 90.2955 216.753 91.0422 216.14C91.7955 215.527 92.8622 215.22 94.2422 215.22C95.5222 215.22 96.5222 215.517 97.2422 216.11C97.9622 216.697 98.3755 217.487 98.4822 218.48H96.9422C96.8422 217.9 96.5689 217.45 96.1222 217.13C95.6822 216.803 95.0555 216.64 94.2422 216.64C93.4155 216.64 92.7722 216.823 92.3122 217.19C91.8522 217.557 91.6222 218.02 91.6222 218.58C91.6222 219.04 91.7655 219.407 92.0522 219.68C92.3455 219.947 92.8022 220.187 93.4222 220.4L96.0222 221.3C96.9222 221.6 97.6322 222.02 98.1522 222.56C98.6789 223.1 98.9422 223.8 98.9422 224.66C98.9422 225.327 98.7622 225.93 98.4022 226.47C98.0489 227.01 97.5255 227.44 96.8322 227.76C96.1389 228.08 95.2889 228.24 94.2822 228.24ZM107.078 215.44H108.938L115.318 225.78H115.178V215.44H116.738V228H114.998L108.398 217.32H108.638V228H107.078V215.44ZM125.21 228.24C124.17 228.24 123.24 228 122.42 227.52C121.6 227.04 120.953 226.32 120.48 225.36C120.007 224.393 119.77 223.187 119.77 221.74C119.77 220.273 120.007 219.06 120.48 218.1C120.953 217.133 121.6 216.413 122.42 215.94C123.24 215.46 124.17 215.22 125.21 215.22C126.25 215.22 127.18 215.46 128 215.94C128.82 216.42 129.467 217.143 129.94 218.11C130.413 219.077 130.65 220.287 130.65 221.74C130.65 223.2 130.413 224.413 129.94 225.38C129.467 226.34 128.82 227.057 128 227.53C127.18 228.003 126.25 228.24 125.21 228.24ZM125.21 226.8C126.39 226.8 127.32 226.37 128 225.51C128.687 224.65 129.03 223.387 129.03 221.72C129.03 220.087 128.687 218.83 128 217.95C127.32 217.063 126.39 216.62 125.21 216.62C124.043 216.62 123.113 217.063 122.42 217.95C121.733 218.837 121.39 220.1 121.39 221.74C121.39 223.4 121.733 224.66 122.42 225.52C123.113 226.373 124.043 226.8 125.21 226.8ZM131.78 216.78V215.44H141.56V216.78H137.09L137.44 216.42V228H135.88V216.42L136.23 216.78H131.78ZM146.546 216.78V215.44H156.326V216.78H151.856L152.206 216.42V228H150.646V216.42L150.996 216.78H146.546ZM158.465 215.44H160.025V220.98H166.245V215.44H167.785V228H166.245V222.32H160.025V228H158.465V215.44ZM171.824 228V215.44H179.564V216.78H173.384V221H179.204V222.34H173.384V226.64H179.564V228H171.824ZM187.801 228V215.44H195.541V216.78H189.361V221H195.181V222.34H189.361V226.64H195.541V228H187.801ZM199.031 215.44H200.891L207.271 225.78H207.131V215.44H208.691V228H206.951L200.351 217.32H200.591V228H199.031V215.44ZM212.723 215.44H216.403C217.67 215.44 218.77 215.7 219.703 216.22C220.636 216.733 221.36 217.46 221.873 218.4C222.386 219.34 222.643 220.447 222.643 221.72C222.643 222.98 222.386 224.08 221.873 225.02C221.36 225.96 220.636 226.693 219.703 227.22C218.77 227.74 217.67 228 216.403 228H212.723V215.44ZM214.283 216.82V226.64H216.403C217.35 226.64 218.163 226.427 218.843 226C219.53 225.573 220.056 224.99 220.423 224.25C220.796 223.503 220.983 222.66 220.983 221.72C220.983 220.773 220.796 219.933 220.423 219.2C220.056 218.46 219.53 217.88 218.843 217.46C218.163 217.033 217.35 216.82 216.403 216.82H214.283Z" fill="white"/>
<defs>
<filter id="filter0_d_0_1" x="78.5469" y="0.699219" width="271.135" height="346.257" filterUnits="userSpaceOnUse" color-interpolation-filters="sRGB">
<feFlood flood-opacity="0" result="BackgroundImageFix"/>
<feColorMatrix in="SourceAlpha" type="matrix" values="0 0 0 0 0 0 0 0 0 0 0 0 0 0 0 0 0 0 127 0" result="hardAlpha"/>
<feOffset dy="4"/>
<feGaussianBlur stdDeviation="2"/>
<feComposite in2="hardAlpha" operator="out"/>
<feColorMatrix type="matrix" values="0 0 0 0 0 0 0 0 0 0 0 0 0 0 0 0 0 0 0.25 0"/>
<feBlend mode="normal" in2="BackgroundImageFix" result="effect1_dropShadow_0_1"/>
<feBlend mode="normal" in="SourceGraphic" in2="effect1_dropShadow_0_1" result="shape"/>
</filter>
</defs>
</svg>
